<?xml version="1.0" encoding="utf-8"?>
<!-- Generator: Adobe Illustrator 16.0.0, SVG Export Plug-In . SVG Version: 6.00 Build 0)  -->
<!DOCTYPE svg PUBLIC "-//W3C//DTD SVG 1.1//EN" "http://www.w3.org/Graphics/SVG/1.1/DTD/svg11.dtd">
<svg version="1.1" id="Layer_1" xmlns="http://www.w3.org/2000/svg" xmlns:xlink="http://www.w3.org/1999/xlink" x="0px" y="0px"
	 width="120px" height="120px" viewBox="0 0 120 120" enable-background="new 0 0 120 120" xml:space="preserve">
<path fill-rule="evenodd" clip-rule="evenodd" fill="#2B5496" d="M45.095,60.715c2.525,0.23,4.457,0.406,6.635,0.605
	c0.54,11.627-0.272,23.013,0.458,34.278c4.915,0,9.178,0,14.196,0c0-11.571,0-22.922,0-34.715c3.523,0,6.291,0,9.437,0
	c0.339-4.011,0.643-7.591,1.008-11.909c-3.661,0-7.029,0-10.481,0c-0.088-1.855-0.216-3.007-0.186-4.153
	c0.134-5.068,1.159-6.064,6.191-6.216c1.437-0.043,2.872-0.175,4.712-0.293c0-3.085,0.033-5.73-0.018-8.374
	c-0.019-0.957-0.237-1.91-0.408-3.19c-3.779,0-7.386-0.082-10.987,0.016C57.044,27,52.303,31.781,51.981,40.533
	c-0.101,2.762-0.016,5.532-0.016,8.304c-2.771,0.305-4.838,0.532-6.871,0.756C45.095,53.495,45.095,56.936,45.095,60.715z"/>
<path fill-rule="evenodd" clip-rule="evenodd" fill="#FF6700" d="M45.095,60.715c0-3.779,0-7.22,0-11.122
	c2.033-0.224,4.1-0.451,6.871-0.756c0-2.771-0.085-5.542,0.016-8.304C52.303,31.781,57.044,27,65.652,26.764
	c3.602-0.098,7.208-0.016,10.987-0.016c0.171,1.28,0.39,2.233,0.408,3.19c0.051,2.644,0.018,5.289,0.018,8.374
	c-1.84,0.118-3.275,0.25-4.712,0.293c-5.032,0.152-6.058,1.148-6.191,6.216c-0.03,1.146,0.098,2.297,0.186,4.153
	c3.452,0,6.82,0,10.481,0c-0.365,4.318-0.669,7.898-1.008,11.909c-3.146,0-5.913,0-9.437,0c0,11.793,0,23.144,0,34.715
	c-5.019,0-9.281,0-14.196,0C51.458,84.333,52.27,72.947,51.73,61.32C49.552,61.121,47.62,60.945,45.095,60.715z"/>
</svg>
