<?xml version="1.0" encoding="utf-8"?>
<!-- Generator: Adobe Illustrator 16.0.0, SVG Export Plug-In . SVG Version: 6.00 Build 0)  -->
<!DOCTYPE svg PUBLIC "-//W3C//DTD SVG 1.1//EN" "http://www.w3.org/Graphics/SVG/1.1/DTD/svg11.dtd">
<svg version="1.1" xmlns="http://www.w3.org/2000/svg" xmlns:xlink="http://www.w3.org/1999/xlink" x="0px" y="0px" width="200px"
	 height="200px" viewBox="0 0 200 200" enable-background="new 0 0 200 200" xml:space="preserve">
<g id="Layer_0_xA0_Image_1_">
</g>
<g id="Layer_1_xA0_Image_1_">
	<g>
		<path fill-rule="evenodd" clip-rule="evenodd" fill="#FFFFFF" d="M71.927,98.364c0,0.021,0,0.041-0.001,0.061
			c-0.759,0-1.519-0.001-2.278,0c-0.628,0.001-1.081-0.219-1.224-0.895c-0.28-1.32,1.244-4.596,2.38-5.252
			c2.44-1.411,5.202-2.036,7.737-3.25c1.979-0.948,4.255-1.285,6.413-1.842c1.146-0.296,2.391-0.314,3.471-0.752
			c2.793-1.133,5.424-2.667,8.405-3.342c0.287-0.064,0.574-0.281,0.785-0.499c0.526-0.545,1.036-1.11,1.496-1.71
			c0.25-0.326,0.387-0.739,0.576-1.113c-0.42-0.157-0.847-0.461-1.26-0.443c-1.107,0.048-1.958-0.247-2.784-1.053
			c-0.434-0.424-1.314-0.574-1.979-0.542c-1.461,0.069-2.914,0.33-4.369,0.517c-2.716,0.349-5.447,0.611-8.143,1.075
			c-2.669,0.459-5.293,1.173-7.956,1.683c-2.418,0.463-4.838,1.095-7.338,0.369c-0.319-0.092-0.853,0.15-1.135,0.405
			c-1.908,1.721-4.188,2.307-6.655,2.09c-0.803-0.071-1.591-0.611-2.33-1.035c-0.787-0.451-1.456-1.128-2.268-1.515
			c-2.095-0.999-4.291-1.669-6.637-1.826c-1.946-0.129-3.891-0.568-5.827-0.518c-2.943,0.077-5.878,0.456-8.817,0.711
			c-2.099,0.182-4.197,0.376-6.297,0.556c-1.63,0.139-3.276,0.17-4.89,0.416c-3.269,0.497-6.528,1.066-9.771,1.712
			c-0.522,0.104-0.997,0.708-1.377,1.175c-0.289,0.356-0.488,0.849-0.557,1.306c-0.094,0.629-0.184,1.332,0.001,1.917
			c0.41,1.297,1.011,2.534,1.488,3.813c0.12,0.323,0.135,0.723,0.077,1.067c-0.193,1.135-0.473,2.256-0.664,3.391
			c-0.669,3.971-1.345,7.941-1.958,11.921c-0.387,2.516-0.679,5.046-0.992,7.571c-0.264,2.133-0.503,4.269-0.739,6.405
			c-0.03,0.272-0.029,0.572,0.053,0.829c0.538,1.686,0.198,3.507,1.098,5.19c0.739,1.382,1.89,2.065,3.085,2.771
			c0.299,0.177,0.899-0.104,1.34-0.241c0.255-0.08,0.506-0.464,0.695-0.421c1.494,0.335,1.764-0.63,2.407-1.696
			c0.833-1.381,1.241-2.781,1.312-4.276c0.169-3.547,0.133-7.104,0.308-10.651c0.058-1.17,0.45-2.341,0.813-3.471
			c0.1-0.312,0.631-0.645,0.994-0.684c1.822-0.195,3.663-0.48,5.479-0.383c2.307,0.124,4.355-0.894,6.563-1.124
			c0.266-0.027,0.514-0.214,0.775-0.313c1.477-0.558,2.859-1.279,4.54-1.342c1.349-0.05,2.813-0.423,3.981-1.084
			c1.515-0.856,3.1-1.378,4.734-1.836c1.491-0.417,2.734-1.123,3.322-2.656c0.494-1.289,0.108-1.999-1.223-2.272
			c-3.207-0.659-6.387-1.401-9.717-0.744c-2.774,0.547-5.58,0.955-8.385,1.319c-2.643,0.343-5.298,0.654-7.958,0.777
			c-1.86,0.086-2.338-0.832-1.803-2.66c0.356-1.219,0.62-2.475,0.802-3.732c0.195-1.348,1.01-2.271,2.365-2.451
			c3.709-0.494,7.406-1.116,11.128-1.45c4.004-0.359,8.033-0.454,12.051-0.652c0.798-0.04,1.601,0.005,2.398-0.045
			c1.904-0.12,3.804-0.308,5.709-0.401c1.421-0.07,1.543,0.095,1.812,1.459c0.458,2.33,1.633,4.222,3.555,5.63
			c1.098,0.805,1.327,1.917,0.667,3.15c-0.259,0.485-0.396,1.034-0.644,1.526c-0.329,0.653-0.597,1.392-1.092,1.896
			c-1.492,1.524-2.31,3.148-1.719,5.37c0.231,0.87,0.104,1.888-0.066,2.8c-0.225,1.21-0.646,2.384-0.993,3.57
			c-0.523,1.783-1.078,3.559-1.576,5.351c-0.362,1.301-0.98,2.642-0.904,3.93c0.125,2.092,0.622,4.2,2.537,5.572
			c0.253,0.182,0.491,0.438,0.633,0.712c0.433,0.837,1.147,1.109,2.002,0.992c2.834-0.388,5.675-0.749,8.491-1.244
			c3.137-0.551,6.242-1.281,9.377-1.843c1.287-0.231,2.696,0.018,3.91-0.378c2.174-0.709,4.355-0.384,6.533-0.491
			c1.658-0.082,3.353,0.274,4.957-0.502c0.318-0.154,0.799-0.076,1.176,0.015c2.3,0.556,4.102-0.232,5.319-2.157
			c0.494-0.781,1.076-2.137,0.736-2.682c-0.669-1.073-1.831-2.09-3.013-2.534c-1.688-0.634-3.569-0.797-5.383-1.044
			c-2.285-0.312-4.586-0.704-6.879-0.696c-2.895,0.009-5.79,0.386-8.684,0.607c-0.239,0.019-0.475,0.074-0.714,0.088
			c-2.59,0.143-5.178,0.337-7.77,0.398c-1.761,0.041-2.337-0.891-1.759-2.597c0.192-0.566,0.503-1.105,0.61-1.685
			c0.336-1.818,1.428-2.819,3.16-3.345c1.293-0.393,2.501-1.066,3.794-1.461c1.045-0.319,2.164-0.389,3.243-0.604
			c1.387-0.276,2.784-0.526,4.142-0.91c0.855-0.241,1.618-0.805,2.472-1.051c1.327-0.381,2.684-0.724,4.052-0.888
			c2.673-0.32,3.964-2.089,4.831-4.347c0.089-0.234-0.021-0.728-0.206-0.852c-0.938-0.628-1.871-1.424-2.922-1.681
			c-1.125-0.274-2.385-0.071-3.578,0.026C79.632,97.656,75.78,98.019,71.927,98.364z M127.253,78.858
			c-1.033,0.078-2.083,0.065-3.097,0.25c-3.674,0.668-7.362,1.292-10.994,2.151c-2.51,0.593-4.995,1.4-7.381,2.379
			c-2.477,1.017-3.415,3.995-2.306,6.451c0.113,0.25,0.241,0.542,0.214,0.798c-0.177,1.696,0.986,2.532,2.153,3.306
			c1.319,0.874,2.699,1.657,4.073,2.445c1.583,0.909,3.164,1.829,4.792,2.651c1.022,0.516,2.143,0.833,3.198,1.288
			c1.238,0.532,2.456,1.115,3.681,1.68c1.945,0.896,3.893,1.786,5.831,2.697c1.611,0.758,3.195,1.575,4.819,2.304
			c0.829,0.373,1.665,0.729,1.805,1.724c0.149,1.062-0.708,1.581-1.436,2.027c-3.758,2.31-7.95,3.627-12.063,5.101
			c-2.322,0.832-4.712,1.481-7.094,2.133c-3.041,0.83-6.102,1.589-9.16,2.356c-1.012,0.255-1.989,0.592-2.24,1.723
			c-0.273,1.23-0.644,2.517,0.388,3.646c0.171,0.188,0.25,0.513,0.265,0.78c0.045,0.83,0.493,1.465,1.227,1.599
			c1.941,0.354,3.94,0.906,5.859,0.735c2.56-0.228,5.079-1.008,7.587-1.661c1.09-0.284,2.078-0.95,3.165-1.255
			c2.486-0.697,5.028-1.197,7.502-1.929c2.677-0.791,5.256-1.834,7.535-3.529c0.885-0.659,1.951-1.069,2.865-1.694
			c0.743-0.507,1.452-1.103,2.05-1.771c0.633-0.708,1.25-1.49,1.638-2.347c0.632-1.393,1.339-2.838,1.528-4.323
			c0.255-2.003-0.467-3.909-1.459-5.7c-2.267-4.09-6.207-5.93-10.219-7.629c-2.778-1.177-5.658-2.108-8.464-3.223
			c-2.144-0.851-4.236-1.831-6.364-2.724c-1.164-0.489-1.398-1.662-0.382-2.409c0.499-0.368,1.122-0.651,1.729-0.772
			c2.148-0.428,4.303-0.847,6.474-1.125c2.894-0.372,5.794-0.653,8.696,0.11c0.789,0.207,1.673,0.143,2.503,0.075
			c0.886-0.072,1.491-0.596,1.57-1.531c0.137-1.626-0.894-2.842-1.682-4.062c-0.427-0.661-1.439-0.944-2.188-1.397
			C131.822,78.945,129.539,78.942,127.253,78.858z M170.387,118.709c-1.585-0.135-3.646-0.367-5.713-0.469
			c-2.407-0.118-4.587-0.924-6.711-1.959c-1.764-0.86-2.681-2.085-2.435-4.236c0.232-2.024,0.466-3.95,1.874-5.546
			c0.194-0.22,0.343-0.584,0.324-0.868c-0.067-1.018,0.535-1.612,1.203-2.219c0.56-0.509,1.141-1.024,1.575-1.636
			c2.427-3.421,6.069-5.496,9.078-8.271c0.085-0.079,0.208-0.118,0.314-0.172c2.505-1.283,4.969-2.656,7.529-3.819
			c1.987-0.903,4.06-1.666,6.159-2.262c1.784-0.506,2.313-1.16,1.918-3.005c-0.172-0.804-0.246-1.643-0.244-2.466
			c0.005-1.458-1.369-3.033-2.7-2.754c-2.443,0.512-4.887,1.089-7.251,1.878c-1.599,0.535-3.063,1.476-4.583,2.242
			c-1.409,0.71-2.906,1.296-4.193,2.185c-1.095,0.756-1.981,1.776-3.256,2.348c-1.003,0.449-2.006,1.067-2.772,1.843
			c-2.236,2.264-4.392,4.61-6.505,6.989c-2.26,2.543-3.818,5.515-5.097,8.656c-1.806,4.438-1.367,8.979-0.413,13.436
			c0.71,3.317,3.413,5.248,6.227,6.841c1.238,0.701,2.594,1.193,3.887,1.798c0.505,0.236,0.961,0.672,1.483,0.759
			c2.656,0.446,5.315,0.942,7.994,1.157c2.382,0.192,4.793,0.061,7.19,0.03c0.956-0.012,1.953,0.013,2.854-0.245
			c0.967-0.276,2.089-0.659,2.696-1.375c0.67-0.791,1.299-0.994,2.222-1.049c0.574-0.034,1.336-0.233,1.644-0.64
			c0.472-0.623,0.957-0.692,1.63-0.716c0.566-0.021,1.141-0.209,1.683-0.403c0.591-0.211,1.13-0.571,1.724-0.768
			c2.291-0.755,4.494-1.593,6.024-3.647c1.041-1.398,0.436-3.63-1.263-3.888c-1.158-0.177-2.384-0.118-3.551,0.042
			c-1.614,0.221-3.189,0.717-4.802,0.95c-2.284,0.329-4.583,0.586-6.884,0.764C176.464,118.431,173.672,118.531,170.387,118.709z"/>
		<path fill-rule="evenodd" clip-rule="evenodd" fill="#FFFFFF" d="M71.927,98.364c3.854-0.345,7.705-0.708,11.561-1.024
			c1.192-0.098,2.453-0.3,3.578-0.026c1.052,0.256,1.984,1.053,2.922,1.681c0.185,0.124,0.295,0.618,0.206,0.852
			c-0.867,2.258-2.158,4.027-4.831,4.347c-1.368,0.164-2.725,0.507-4.052,0.888c-0.854,0.246-1.617,0.81-2.472,1.051
			c-1.358,0.384-2.755,0.634-4.142,0.91c-1.079,0.216-2.198,0.285-3.243,0.604c-1.293,0.395-2.5,1.068-3.794,1.461
			c-1.732,0.525-2.823,1.526-3.16,3.345c-0.107,0.579-0.418,1.118-0.61,1.685c-0.578,1.706-0.002,2.638,1.759,2.597
			c2.592-0.062,5.18-0.256,7.77-0.398c0.239-0.014,0.475-0.069,0.714-0.088c2.895-0.222,5.789-0.599,8.684-0.607
			c2.293-0.008,4.595,0.385,6.879,0.696c1.814,0.247,3.695,0.41,5.383,1.044c1.182,0.444,2.344,1.461,3.013,2.534
			c0.339,0.545-0.243,1.9-0.736,2.682c-1.217,1.925-3.019,2.713-5.319,2.157c-0.377-0.091-0.858-0.169-1.176-0.015
			c-1.604,0.776-3.298,0.42-4.957,0.502c-2.178,0.107-4.359-0.218-6.533,0.491c-1.214,0.396-2.623,0.146-3.91,0.378
			c-3.135,0.562-6.24,1.292-9.377,1.843c-2.816,0.495-5.657,0.856-8.491,1.244c-0.855,0.117-1.569-0.155-2.002-0.992
			c-0.142-0.274-0.38-0.53-0.633-0.712c-1.915-1.372-2.413-3.48-2.537-5.572c-0.077-1.288,0.542-2.629,0.904-3.93
			c0.499-1.792,1.053-3.567,1.576-5.351c0.348-1.187,0.768-2.36,0.993-3.57c0.17-0.912,0.297-1.93,0.066-2.8
			c-0.59-2.222,0.228-3.846,1.719-5.37c0.495-0.505,0.763-1.243,1.092-1.896c0.248-0.492,0.384-1.042,0.644-1.526
			c0.66-1.233,0.431-2.346-0.667-3.15c-1.921-1.408-3.096-3.3-3.555-5.63c-0.269-1.364-0.391-1.529-1.812-1.459
			c-1.905,0.094-3.806,0.282-5.709,0.401c-0.797,0.05-1.6,0.005-2.398,0.045c-4.019,0.198-8.047,0.293-12.051,0.652
			c-3.723,0.334-7.419,0.957-11.128,1.45c-1.355,0.18-2.169,1.103-2.365,2.451c-0.182,1.257-0.445,2.513-0.802,3.732
			c-0.535,1.829-0.058,2.747,1.803,2.66c2.66-0.123,5.315-0.434,7.958-0.777c2.805-0.364,5.611-0.772,8.385-1.319
			c3.33-0.657,6.511,0.085,9.717,0.744c1.331,0.273,1.717,0.983,1.223,2.272c-0.588,1.533-1.831,2.239-3.322,2.656
			c-1.635,0.458-3.219,0.979-4.734,1.836c-1.168,0.661-2.632,1.034-3.981,1.084c-1.681,0.063-3.063,0.784-4.54,1.342
			c-0.261,0.1-0.509,0.286-0.775,0.313c-2.208,0.23-4.256,1.248-6.563,1.124c-1.815-0.098-3.657,0.188-5.479,0.383
			c-0.363,0.039-0.894,0.372-0.994,0.684c-0.363,1.13-0.755,2.301-0.813,3.471c-0.174,3.547-0.138,7.104-0.308,10.651
			c-0.071,1.495-0.479,2.896-1.312,4.276c-0.643,1.066-0.913,2.031-2.407,1.696c-0.188-0.043-0.439,0.341-0.695,0.421
			c-0.441,0.138-1.041,0.418-1.34,0.241c-1.195-0.706-2.346-1.39-3.085-2.771c-0.9-1.684-0.56-3.505-1.098-5.19
			c-0.083-0.257-0.083-0.557-0.053-0.829c0.236-2.137,0.475-4.272,0.739-6.405c0.313-2.525,0.604-5.056,0.992-7.571
			c0.613-3.979,1.289-7.95,1.958-11.921c0.191-1.135,0.471-2.256,0.664-3.391c0.058-0.344,0.043-0.745-0.077-1.067
			c-0.477-1.279-1.079-2.515-1.488-3.813c-0.185-0.584-0.095-1.287-0.001-1.917c0.068-0.458,0.268-0.95,0.557-1.306
			c0.38-0.468,0.855-1.071,1.377-1.175c3.242-0.646,6.502-1.215,9.771-1.712c1.614-0.246,3.259-0.276,4.89-0.416
			c2.1-0.18,4.198-0.374,6.297-0.556c2.938-0.255,5.874-0.634,8.817-0.711c1.936-0.05,3.88,0.389,5.827,0.518
			c2.346,0.156,4.542,0.827,6.637,1.826c0.812,0.387,1.48,1.064,2.268,1.515c0.739,0.424,1.526,0.964,2.33,1.035
			c2.467,0.217,4.748-0.369,6.655-2.09c0.283-0.255,0.816-0.498,1.135-0.405c2.5,0.726,4.92,0.095,7.338-0.369
			c2.662-0.51,5.287-1.223,7.956-1.683c2.696-0.464,5.427-0.726,8.143-1.075c1.455-0.187,2.908-0.447,4.369-0.517
			c0.665-0.031,1.544,0.118,1.979,0.542c0.826,0.806,1.677,1.101,2.784,1.053c0.413-0.018,0.84,0.286,1.26,0.443
			c-0.188,0.374-0.325,0.787-0.576,1.113c-0.46,0.6-0.97,1.165-1.496,1.71c-0.211,0.218-0.498,0.435-0.785,0.499
			c-2.981,0.674-5.611,2.208-8.405,3.342c-1.08,0.438-2.324,0.456-3.471,0.752c-2.158,0.557-4.434,0.895-6.413,1.842
			c-2.535,1.213-5.297,1.838-7.737,3.25c-1.136,0.657-2.66,3.933-2.38,5.252c0.144,0.676,0.596,0.896,1.224,0.895
			c0.759-0.001,1.519,0,2.278,0C71.926,98.405,71.927,98.384,71.927,98.364z"/>
		<path fill-rule="evenodd" clip-rule="evenodd" fill="#FFFFFF" d="M127.253,78.858c2.286,0.084,4.569,0.087,6.618,1.325
			c0.749,0.453,1.76,0.736,2.188,1.397c0.788,1.22,1.819,2.436,1.682,4.062c-0.079,0.935-0.684,1.459-1.57,1.531
			c-0.83,0.067-1.714,0.132-2.503-0.075c-2.901-0.763-5.802-0.481-8.696-0.11c-2.171,0.279-4.326,0.697-6.474,1.125
			c-0.607,0.121-1.23,0.405-1.729,0.772c-1.016,0.748-0.781,1.92,0.382,2.409c2.128,0.893,4.22,1.873,6.364,2.724
			c2.806,1.114,5.687,2.046,8.464,3.223c4.012,1.699,7.953,3.54,10.219,7.629c0.992,1.791,1.714,3.697,1.459,5.7
			c-0.189,1.485-0.896,2.931-1.528,4.323c-0.388,0.856-1.004,1.639-1.638,2.347c-0.598,0.669-1.307,1.265-2.05,1.771
			c-0.914,0.625-1.98,1.035-2.865,1.694c-2.279,1.695-4.858,2.738-7.535,3.529c-2.475,0.731-5.017,1.231-7.502,1.929
			c-1.087,0.305-2.075,0.971-3.165,1.255c-2.508,0.653-5.027,1.434-7.587,1.661c-1.919,0.171-3.918-0.381-5.859-0.735
			c-0.733-0.134-1.181-0.769-1.227-1.599c-0.015-0.268-0.094-0.593-0.265-0.78c-1.031-1.129-0.661-2.415-0.388-3.646
			c0.251-1.131,1.229-1.468,2.24-1.723c3.058-0.768,6.119-1.526,9.16-2.356c2.381-0.651,4.772-1.301,7.094-2.133
			c4.113-1.474,8.304-2.791,12.063-5.101c0.728-0.446,1.585-0.966,1.436-2.027c-0.14-0.995-0.976-1.351-1.805-1.724
			c-1.624-0.729-3.208-1.546-4.819-2.304c-1.938-0.911-3.886-1.801-5.831-2.697c-1.225-0.564-2.443-1.147-3.681-1.68
			c-1.056-0.454-2.176-0.772-3.198-1.288c-1.629-0.822-3.209-1.742-4.792-2.651c-1.374-0.788-2.754-1.571-4.073-2.445
			c-1.167-0.774-2.33-1.61-2.153-3.306c0.027-0.257-0.101-0.548-0.214-0.798c-1.109-2.456-0.171-5.434,2.306-6.451
			c2.386-0.979,4.871-1.786,7.381-2.379c3.631-0.859,7.319-1.483,10.994-2.151C125.17,78.923,126.22,78.936,127.253,78.858z"/>
		<path fill-rule="evenodd" clip-rule="evenodd" fill="#FFFFFF" d="M170.387,118.709c3.285-0.178,6.077-0.278,8.859-0.493
			c2.301-0.178,4.6-0.435,6.884-0.764c1.613-0.233,3.188-0.729,4.802-0.95c1.167-0.16,2.394-0.219,3.551-0.042
			c1.699,0.258,2.304,2.489,1.263,3.888c-1.53,2.055-3.733,2.893-6.024,3.647c-0.594,0.196-1.133,0.557-1.724,0.768
			c-0.542,0.194-1.117,0.383-1.683,0.403c-0.673,0.023-1.158,0.093-1.63,0.716c-0.308,0.406-1.07,0.605-1.644,0.64
			c-0.923,0.055-1.552,0.258-2.222,1.049c-0.606,0.716-1.729,1.099-2.696,1.375c-0.902,0.258-1.898,0.233-2.854,0.245
			c-2.397,0.03-4.808,0.162-7.19-0.03c-2.679-0.215-5.338-0.711-7.994-1.157c-0.522-0.087-0.979-0.522-1.483-0.759
			c-1.293-0.604-2.649-1.097-3.887-1.798c-2.814-1.593-5.517-3.523-6.227-6.841c-0.954-4.456-1.393-8.997,0.413-13.436
			c1.279-3.142,2.837-6.113,5.097-8.656c2.113-2.379,4.269-4.725,6.505-6.989c0.766-0.776,1.769-1.394,2.772-1.843
			c1.275-0.571,2.162-1.591,3.256-2.348c1.287-0.889,2.784-1.475,4.193-2.185c1.521-0.766,2.984-1.707,4.583-2.242
			c2.364-0.79,4.808-1.367,7.251-1.878c1.331-0.279,2.705,1.296,2.7,2.754c-0.002,0.823,0.072,1.662,0.244,2.466
			c0.394,1.845-0.135,2.499-1.918,3.005c-2.1,0.596-4.172,1.359-6.159,2.262c-2.56,1.163-5.024,2.536-7.529,3.819
			c-0.106,0.054-0.229,0.093-0.314,0.172c-3.008,2.774-6.651,4.85-9.078,8.271c-0.434,0.611-1.015,1.127-1.575,1.636
			c-0.668,0.606-1.271,1.201-1.203,2.219c0.019,0.284-0.13,0.648-0.324,0.868c-1.407,1.596-1.642,3.521-1.874,5.546
			c-0.246,2.151,0.671,3.376,2.435,4.236c2.124,1.035,4.305,1.841,6.711,1.959C166.741,118.342,168.802,118.574,170.387,118.709z"/>
	</g>
</g>
</svg>
