<?xml version="1.0" encoding="utf-8"?>
<!-- Generator: Adobe Illustrator 16.0.0, SVG Export Plug-In . SVG Version: 6.00 Build 0)  -->
<!DOCTYPE svg PUBLIC "-//W3C//DTD SVG 1.1//EN" "http://www.w3.org/Graphics/SVG/1.1/DTD/svg11.dtd">
<svg version="1.1" id="Layer_1" xmlns="http://www.w3.org/2000/svg" xmlns:xlink="http://www.w3.org/1999/xlink" x="0px" y="0px"
	 width="200px" height="200px" viewBox="206 296 200 200" enable-background="new 206 296 200 200" xml:space="preserve">
<g>
	<polygon fill="#FFFFFF" points="348.012,441.403 348.012,407.638 378.625,407.638 378.625,385.579 348.012,385.579 
		348.012,354.515 381.776,354.515 381.776,366.67 403.837,366.67 403.837,332.455 314.697,332.455 314.697,354.515 322.801,354.515 
		322.801,441.403 314.697,441.403 314.697,463.463 355.665,463.463 355.665,441.403 	"/>
	<path fill="#FFFFFF" d="M302.992,413.941v-59.427h8.104v-22.06h-41.418v22.06h8.104v52.224c0,22.06-2.701,32.414-18.008,32.414
		s-18.008-10.354-18.008-32.414v-52.224h8.104v-22.06H208v22.06h8.104v59.427c0,13.056,0,23.86,6.303,33.314
		c6.753,10.805,19.359,17.558,37.367,17.558C291.737,464.813,302.992,448.156,302.992,413.941L302.992,413.941z"/>
</g>
</svg>
