<?xml version="1.0" encoding="utf-8"?>
<!-- Generator: Adobe Illustrator 16.0.0, SVG Export Plug-In . SVG Version: 6.00 Build 0)  -->
<!DOCTYPE svg PUBLIC "-//W3C//DTD SVG 1.1//EN" "http://www.w3.org/Graphics/SVG/1.1/DTD/svg11.dtd">
<svg version="1.1" id="Layer_1" xmlns="http://www.w3.org/2000/svg" xmlns:xlink="http://www.w3.org/1999/xlink" x="0px" y="0px"
	 width="503px" height="22px" viewBox="0 0 503 22" enable-background="new 0 0 503 22" xml:space="preserve">
<g>
	<path fill-rule="evenodd" clip-rule="evenodd" fill="#F3752A" d="M11,15.001c0-1.333,0-2.667,0-4.001c162.365,0,324.73,0,487.096,0
		c-0.154,1.226-0.309,2.452-0.369,2.937c-15.917,0-31.248-0.01-46.579,0.002c-18.115,0.014-36.232-0.021-54.348,0.104
		c-6.858,0.047-13.717,0.744-20.573,0.688c-15.998-0.131-31.993-0.66-47.991-0.797c-13.959-0.12-27.922-0.019-41.88,0.166
		c-10.52,0.139-21.036,0.854-31.552,0.792c-15.823-0.093-31.643-0.787-47.466-0.954c-14.125-0.148-28.254-0.004-42.38,0.154
		c-10.515,0.118-21.029,0.707-31.542,0.651c-16.165-0.085-32.329-0.839-48.491-0.771C60.282,14.073,35.642,14.635,11,15.001z"/>
	<path fill-rule="evenodd" clip-rule="evenodd" fill="#FEFAF8" d="M11,15.001c24.642-0.366,49.282-0.928,73.925-1.029
		c16.162-0.067,32.326,0.687,48.491,0.771c10.513,0.056,21.027-0.533,31.542-0.651c14.126-0.158,28.255-0.303,42.38-0.154
		c15.824,0.167,31.644,0.861,47.466,0.954c10.516,0.063,21.032-0.653,31.552-0.792c13.958-0.185,27.921-0.286,41.88-0.166
		c15.998,0.137,31.993,0.666,47.991,0.797c6.856,0.056,13.715-0.642,20.573-0.688c18.115-0.125,36.232-0.09,54.348-0.104
		c15.331-0.012,30.662-0.002,46.579-0.002c0.061-0.484,0.215-1.71,0.369-2.937c0.489,1.966,0.979,3.933,1.493,6.001
		c-161.857,0-323.223,0.006-484.588-0.103C13.748,16.897,10.685,18.965,11,15.001z"/>
</g>
</svg>
